<svg width="118" height="20" viewBox="0 0 118 20" fill="none" xmlns="http://www.w3.org/2000/svg">
<path fill-rule="evenodd" clip-rule="evenodd" d="M38.9862 8.10259C39.9181 8.92291 40.3814 9.97843 40.4776 11.1957C40.5743 12.413 40.3881 13.5765 39.653 14.5917C38.7149 15.8877 37.4049 16.4527 35.8284 16.4402C34.6545 16.4311 34.056 16.18 33.0188 15.2949V16.2842H30.4777V3.66788H33.1203V8.06707C33.1635 8.04292 33.2048 8.01565 33.244 7.98547C34.0262 7.21363 35.0019 6.96643 36.0602 6.99571C37.1581 7.02547 38.1525 7.36915 38.9862 8.10259ZM34.934 14.2163C35.9539 14.4146 36.894 14.0344 37.4126 13.2083C37.7618 12.652 37.8369 12.0338 37.7811 11.3987C37.5862 9.18739 35.4103 8.74435 34.184 9.52675C33.3907 10.0336 33.1001 10.8064 33.0905 11.7184C33.0986 11.7903 33.1053 11.8625 33.1121 11.9346C33.1269 12.0941 33.1419 12.254 33.1713 12.4106C33.3464 13.3312 34.0469 14.0445 34.934 14.2163Z" fill="white"/>
<path d="M60.7031 16.2846H63.3678L63.3693 15.9903C63.3693 15.5675 63.3697 15.1446 63.3701 14.7216C63.3712 13.5584 63.3724 12.3952 63.3649 11.2335C63.3659 10.8236 63.3367 10.4142 63.2774 10.0086C63.0782 8.73035 62.4278 7.74203 61.1856 7.30139C59.5206 6.70859 57.9436 6.88667 56.5797 8.11739C56.5508 8.13419 56.5202 8.14787 56.4883 8.15819V7.13867H53.9641V16.2807H56.61C56.61 16.14 56.6097 16.0013 56.6094 15.864V15.8513C56.6087 15.575 56.6081 15.3034 56.61 15.0327C56.6126 14.6747 56.6128 14.3165 56.613 13.9584C56.6134 13.0851 56.6139 12.2119 56.648 11.3401C56.6909 10.1919 57.4005 9.44603 58.5353 9.31355C59.5663 9.19355 60.4558 9.60299 60.6425 10.8294C60.6836 11.1155 60.7039 11.4043 60.7031 11.6934C60.7054 12.6486 60.7046 13.6039 60.7039 14.5589C60.7035 15.0364 60.7031 15.5139 60.7031 15.9913V16.2846Z" fill="white"/>
<path d="M109.263 15.4525L109.254 15.4721C109.347 15.5177 109.436 15.5638 109.523 15.609C109.666 15.6832 109.803 15.7546 109.945 15.8158C111.351 16.3846 112.813 16.5617 114.315 16.3846C115.159 16.2847 115.965 16.0476 116.638 15.5028C117.465 14.8356 117.733 13.9582 117.541 12.9343C117.367 12.0079 116.732 11.479 115.883 11.2217C115.419 11.0813 114.94 10.988 114.462 10.8947C114.227 10.8489 113.992 10.8031 113.759 10.7518C113.651 10.7278 113.542 10.7053 113.433 10.6827C113.107 10.6154 112.78 10.548 112.467 10.4427C111.951 10.2689 111.874 9.68282 112.311 9.36026C112.469 9.2441 112.664 9.13658 112.853 9.11306C113.308 9.05037 113.767 9.02517 114.225 9.0377C114.992 9.07178 115.71 9.31658 116.402 9.69098L116.668 9.12618C116.876 8.68448 117.081 8.24654 117.289 7.80506C117.271 7.79414 117.254 7.78387 117.238 7.77424C117.196 7.74789 117.16 7.72628 117.125 7.70906L117.072 7.68323L117.042 7.66808C116.932 7.61376 116.823 7.5596 116.707 7.51706C115.46 7.04858 114.169 6.90986 112.849 7.0457C112.021 7.13162 111.23 7.35578 110.551 7.8641C109.67 8.52362 109.363 9.42122 109.522 10.4835C109.679 11.5332 110.399 12.0857 111.347 12.3583C111.777 12.4817 112.22 12.5611 112.663 12.6406C112.896 12.6822 113.129 12.7241 113.36 12.7721C113.431 12.787 113.503 12.8017 113.575 12.8164C113.937 12.8904 114.3 12.9646 114.652 13.0735C114.964 13.1695 115.075 13.3927 115.037 13.6927C114.989 14.0729 114.703 14.225 114.381 14.3167C113.828 14.4737 113.26 14.4612 112.697 14.3964C111.797 14.3005 110.929 14.0125 110.15 13.5521C109.856 14.1809 109.567 14.7997 109.263 15.4525Z" fill="white"/>
<path d="M99.7414 15.4508L99.8389 15.2414C100.091 14.7008 100.337 14.1722 100.584 13.6436C100.601 13.6133 100.62 13.5844 100.642 13.5572C101.428 14.0238 102.274 14.3137 103.175 14.3843C103.594 14.4171 104.02 14.3831 104.444 14.3491C104.566 14.3393 104.689 14.3296 104.811 14.3214C104.93 14.3139 105.05 14.2475 105.16 14.1872L105.168 14.1827C105.414 14.0464 105.548 13.8347 105.524 13.5481C105.517 13.4294 105.471 13.3162 105.392 13.2266C105.314 13.1369 105.208 13.0758 105.091 13.0528C104.752 12.9703 104.409 12.9019 104.066 12.8336C103.88 12.7965 103.694 12.7594 103.509 12.7201C103.337 12.6838 103.165 12.6506 102.993 12.6174C102.57 12.5361 102.148 12.4547 101.74 12.3275C100.869 12.0568 100.213 11.534 100.016 10.5812C99.7751 9.42109 100.235 8.34253 101.245 7.71277C101.873 7.32109 102.57 7.12334 103.299 7.04653C104.635 6.90253 105.941 7.04653 107.204 7.52029C107.33 7.5677 107.451 7.62764 107.582 7.69177C107.644 7.72237 107.708 7.75414 107.776 7.78573L106.917 9.61213C106.725 9.55495 106.537 9.49562 106.35 9.43695C105.933 9.30555 105.526 9.17736 105.112 9.08413C104.534 8.95169 103.933 8.95646 103.358 9.09805C103.179 9.14423 103.008 9.21601 102.849 9.31117C102.62 9.44701 102.485 9.65485 102.517 9.93517C102.548 10.2064 102.723 10.3801 102.969 10.4488C103.383 10.5651 103.804 10.6552 104.225 10.7449L104.238 10.7478C104.465 10.7959 104.691 10.8392 104.918 10.8825C105.317 10.9586 105.716 11.0346 106.109 11.1366C107.103 11.3953 107.869 11.93 108.033 13.024C108.217 14.2384 107.759 15.1686 106.72 15.7705C105.835 16.2836 104.858 16.4305 103.854 16.4425C102.588 16.4564 101.364 16.2404 100.205 15.7158C100.116 15.6773 100.031 15.6299 99.9463 15.5827C99.9253 15.571 99.9043 15.5593 99.8833 15.5478C99.8593 15.5336 99.8361 15.5172 99.8074 15.4968C99.7885 15.4834 99.7669 15.4681 99.7414 15.4508Z" fill="white"/>
<path fill-rule="evenodd" clip-rule="evenodd" d="M87.4693 10.5933C86.7765 7.14115 83.1511 6.36451 81.0473 7.4253C80.816 7.54204 80.6073 7.70408 80.3942 7.86956C80.2972 7.9449 80.1991 8.02113 80.0976 8.09395V7.13971H77.5633V19.6H80.2093V15.3789C81.3042 16.2175 81.8348 16.4407 82.9144 16.4392C84.8046 16.4392 86.257 15.6587 87.1094 13.9403C87.6362 12.88 87.6993 11.7381 87.4693 10.5933ZM84.093 13.6816C83.3714 14.3186 82.5286 14.4266 81.6506 14.1016C80.7635 13.7738 80.3199 13.0682 80.2073 12.1547C80.115 11.392 80.204 10.6552 80.7038 10.0312C81.3446 9.23106 82.2082 9.02322 83.1621 9.26034C84.0983 9.49122 84.6256 10.1517 84.8137 11.0843C84.8419 11.2233 84.8538 11.3664 84.8657 11.5086C84.8718 11.5824 84.878 11.6564 84.8864 11.729C84.8719 12.4831 84.6756 13.168 84.093 13.6816Z" fill="white"/>
<path fill-rule="evenodd" clip-rule="evenodd" d="M69.4383 7.10615C71.0975 6.78887 72.6495 7.06823 73.9268 8.25191C74.9886 9.23543 75.3744 10.5026 75.32 11.9196C75.2984 12.4668 75.2902 12.4668 74.7312 12.4668H68.3169C68.5007 13.2549 68.9505 13.7973 69.6639 14.0637C70.908 14.5284 72.0881 14.4079 73.1398 13.5357C73.1593 13.5196 73.1789 13.5039 73.2014 13.4859C73.221 13.4702 73.2426 13.4529 73.2682 13.4321L74.6802 14.9546C74.3225 15.3816 73.8727 15.7224 73.3644 15.9516C72.3705 16.4157 71.3164 16.4997 70.2403 16.4157C69.4263 16.3524 68.6479 16.1484 67.9383 15.7394C66.2468 14.7655 65.5078 13.2607 65.6435 11.3613C65.8027 9.13223 67.2484 7.52423 69.4383 7.10615ZM68.3097 10.9087H72.7765C72.8299 9.98759 71.786 9.04007 70.691 9.00551C69.4051 8.96327 68.3327 9.81287 68.3097 10.9087Z" fill="white"/>
<path fill-rule="evenodd" clip-rule="evenodd" d="M51.6845 11.0364C51.545 9.75382 50.9835 8.68438 49.9256 7.91302C48.8677 7.14166 47.6756 6.92566 46.3916 7.02022C44.0064 7.19542 42.1773 9.01078 42.0431 11.3882C41.942 13.1733 42.5545 14.6599 44.1204 15.5978C45.9538 16.696 47.8993 16.7311 49.8578 15.904C50.336 15.702 50.7324 15.3693 51.0817 14.958L49.6606 13.4263C49.1342 13.9428 48.4393 14.2533 47.7026 14.3013C46.8443 14.3652 46.0409 14.2245 45.3751 13.6293C45.0303 13.3265 44.8002 12.9147 44.7232 12.4629H51.6912C51.6915 12.3067 51.6959 12.1532 51.7001 12.002C51.7095 11.6715 51.7185 11.3515 51.6845 11.0364ZM44.7088 10.9058C44.7569 10.0418 45.529 8.98582 46.9872 9.00358C48.1365 9.01606 49.1598 9.88582 49.1848 10.9058H44.7088Z" fill="white"/>
<path fill-rule="evenodd" clip-rule="evenodd" d="M95.0782 7.205C96.7255 7.63748 97.7059 8.82067 97.7516 10.5136C97.7839 11.7182 97.7804 12.9236 97.7768 14.1276C97.7752 14.6997 97.7735 15.2714 97.7757 15.8426V16.2746H95.301V15.2666C95.2821 15.2715 95.266 15.2743 95.2527 15.2766C95.2311 15.2803 95.217 15.2827 95.211 15.2911C94.6635 16.0715 93.8568 16.3514 92.9566 16.4215C92.0666 16.4882 91.1949 16.4099 90.3978 15.9602C89.4034 15.3986 88.9627 14.5283 89.0478 13.408C89.1315 12.3098 89.7647 11.6138 90.7749 11.2375C91.4412 10.9888 92.1402 10.9245 92.846 10.9212H94.9301C94.9611 10.9208 94.992 10.9175 95.0268 10.9137C95.0454 10.9117 95.0651 10.9096 95.0864 10.9077C95.1807 10.0816 94.6515 9.37075 93.7961 9.19555C92.6064 8.95171 91.5067 9.20371 90.4896 9.84835C90.4492 9.87427 90.4098 9.90403 90.3357 9.95203L89.3788 8.10596C89.9176 7.72148 90.5079 7.47187 91.1333 7.30099C92.4385 6.94387 93.7581 6.85843 95.0782 7.205ZM94.6404 14.1232C94.8839 13.9216 95.0797 13.6629 95.1057 13.3317H95.1066C95.121 13.1428 95.1172 12.9519 95.1133 12.751C95.1116 12.6629 95.1098 12.5728 95.1095 12.4802C95.083 12.4787 95.0573 12.4769 95.0321 12.4752C94.9767 12.4713 94.924 12.4677 94.8714 12.4677C94.7131 12.4682 94.5548 12.4679 94.3965 12.4677C93.9412 12.4669 93.486 12.4661 93.0312 12.4835C92.7739 12.4957 92.5198 12.5451 92.2769 12.6304C91.8299 12.7845 91.6192 13.1315 91.6409 13.6005C91.6611 14.0455 91.9016 14.3531 92.3014 14.4971C93.1423 14.8034 93.9395 14.7026 94.6404 14.1232Z" fill="white"/>
<path d="M5.06949 14.7602C2.47163 14.7798 0.162424 12.7298 0.0180987 10.0355C-0.0574316 8.60369 0.406335 7.35185 1.4017 6.31649C2.39706 5.28113 3.62335 4.78817 5.06179 4.75121V0.427376C5.10605 0.422096 5.14165 0.416336 5.17773 0.413936C5.22584 0.411536 5.27395 0.410576 5.32206 0.410576C8.64828 0.408176 11.9745 0.388016 15.3007 0.410576C17.074 0.422095 18.6471 1.01058 19.9191 2.27873C20.8135 3.17201 21.3023 4.25441 21.2787 5.53313C21.2594 6.60785 20.8534 7.53905 20.1582 8.35121C19.7378 8.83658 19.2375 9.24693 18.6789 9.56464L18.4999 9.66928C18.5529 9.70336 18.5962 9.73168 18.6366 9.75664C19.5987 10.313 20.3901 11.0474 20.8573 12.0688C21.5981 13.6888 21.3864 15.2195 20.3112 16.6211C19.4736 17.7146 18.3277 18.3544 17.0115 18.7082C16.3994 18.8699 15.7684 18.9495 15.1352 18.9448C14.023 18.9422 12.911 18.9422 11.7994 18.9448C10.4203 18.9448 9.04004 18.9474 7.65869 18.9525C6.85816 18.9525 6.05812 18.9602 5.25808 18.964H5.06901L5.06949 14.7602Z" fill="white"/>
<path d="M5.03936 14.8058C7.82253 14.8058 10.0787 12.5547 10.0787 9.77778C10.0787 7.0009 7.82253 4.74979 5.03936 4.74979C2.2562 4.74979 0 7.0009 0 9.77778C0 12.5547 2.2562 14.8058 5.03936 14.8058Z" fill="#ED0E61"/>
</svg>
